# Blender v2.79 (sub 0) OBJ File: ''
# www.blender.org
mtllib 137.mtl
o Porygon
v 0.000000 -0.210552 -1.089907
v 0.511189 -0.786758 -0.982288
v 0.000000 -0.786758 -0.982288
v 0.682090 -0.210552 -1.089907
v -0.511189 -0.786758 -0.982288
v 0.574141 0.064381 -1.134222
v -0.682090 -0.210552 -1.089907
v 0.000000 0.064381 -1.134222
v -0.574141 0.064381 -1.134222
v 0.000000 -0.786758 0.271589
v 0.511189 -0.786758 0.271589
v 0.359402 0.610143 0.036199
v -0.359402 0.610143 0.036199
v 0.682103 -0.210552 0.727156
v 0.574141 0.064381 0.308698
v -0.511189 -0.786758 0.271589
v 0.000000 0.610143 0.036199
v 0.000000 0.445826 0.505782
v 0.424634 0.445826 0.505782
v -0.682103 -0.210552 0.727156
v -0.424634 0.445826 0.505782
v -0.574141 0.064381 0.308698
v -0.000000 1.168704 -0.459514
v 0.276765 1.596846 -0.366042
v 0.659168 1.168704 -0.459514
v -0.000000 1.596846 -0.366042
v 0.639465 0.746379 -0.353148
v -0.276765 1.596846 -0.366042
v -0.000000 0.746379 -0.353148
v -0.659168 1.168704 -0.459514
v -0.639466 0.746379 -0.353148
v 0.571319 0.445826 0.505770
v -0.571319 0.445826 0.505770
v -0.000000 0.445826 0.505770
v 0.439339 0.430782 0.919818
v -0.000000 0.430782 0.919818
v -0.439339 0.430782 0.919818
v 0.199685 0.436306 1.614447
v 0.231812 0.407131 1.570868
v 0.322523 0.940455 1.149954
v -0.000000 0.940459 1.149954
v -0.000000 0.436306 1.614447
v -0.000000 0.407131 1.570868
v 0.425100 0.810720 1.042148
v -0.199685 0.436306 1.614447
v -0.322523 0.940455 1.149954
v -0.231812 0.407131 1.570868
v -0.425100 0.810720 1.042148
v 0.000000 -0.210552 0.727156
v 0.485566 0.984891 0.686381
v 0.366045 1.200946 0.781495
v 0.562693 0.898703 0.319641
v -0.000000 1.200946 0.781495
v 0.275848 1.401101 0.479927
v -0.000000 1.401098 0.479927
v -0.000000 1.464754 0.209812
v 0.378784 1.464754 0.209812
v 0.554451 1.198885 0.095830
v -0.485566 0.984891 0.686381
v -0.366045 1.200946 0.781495
v -0.562693 0.898703 0.319641
v -0.275848 1.401101 0.479927
v -0.554451 1.198885 0.095830
v -0.378784 1.464754 0.209812
v 0.000000 -0.760344 -0.986563
v 0.389316 -0.759774 -1.269957
v 0.389316 -0.760344 -0.986563
v 0.000000 -0.759774 -1.269957
v 0.238182 -0.075270 -1.112321
v 0.000000 -0.075270 -1.112321
v 0.057306 0.747749 -2.488063
v 0.057651 0.835053 -2.387079
v 0.000000 0.747749 -2.488063
v 0.000000 0.835053 -2.387079
v -0.389316 -0.760344 -0.986563
v -0.389316 -0.759774 -1.269957
v -0.238182 -0.075270 -1.112321
v -0.057306 0.747749 -2.488063
v -0.057651 0.835053 -2.387079
v 0.682096 -0.940137 -0.432112
v 0.682096 -0.665687 0.652652
v 0.682096 -0.136297 -0.432112
v 0.682096 -0.940137 0.652572
v 0.682096 -0.541600 -1.109917
v 0.682096 -0.940137 -1.109917
v 1.257034 -0.940137 -0.432112
v 1.257034 -0.940137 -1.109917
v 1.257034 -0.691438 -1.109917
v 1.257034 -0.360643 -0.432112
v 1.257034 -0.753032 0.652683
v 1.257034 -0.940137 0.652572
v -0.682096 -0.940137 -0.432112
v -0.682096 -0.136297 -0.432112
v -0.682096 -0.665686 0.652648
v -0.682096 -0.541600 -1.109917
v -0.682096 -0.940137 0.652572
v -0.682096 -0.940137 -1.109917
v -1.257034 -0.940137 -0.432112
v -1.257034 -0.360643 -0.432112
v -1.257034 -0.691438 -1.109917
v -1.257034 -0.753032 0.652683
v -1.257034 -0.940137 -1.109917
v -1.257034 -0.940137 0.652572
vt 0.796868 0.128910
vt 0.640616 0.089269
vt 0.796871 0.011182
vt 0.640627 0.128906
vt 0.898432 0.069749
vt 0.898431 0.128912
vt 0.796866 0.210942
vt 0.898429 0.210944
vt 0.898428 0.247810
vt 0.796864 0.295837
vt 0.640608 0.237994
vt 0.640625 0.210938
vt 0.203129 0.128910
vt 0.203126 0.011182
vt 0.359381 0.089269
vt 0.101564 0.069749
vt 0.359370 0.128906
vt 0.101566 0.128912
vt 0.203131 0.210942
vt 0.203133 0.295837
vt 0.101569 0.247810
vt 0.359389 0.237994
vt 0.101568 0.210944
vt 0.359372 0.210938
vt 0.992188 0.253905
vt 0.983004 0.031251
vt 0.992188 0.031249
vt 0.957150 0.253907
vt 0.992188 0.398586
vt 0.984375 0.687500
vt 0.935687 0.398586
vt 0.992188 0.687500
vt 0.007813 0.253905
vt 0.016996 0.031251
vt 0.042850 0.253907
vt 0.007813 0.031249
vt 0.015625 0.687500
vt 0.007813 0.398586
vt 0.064314 0.398586
vt 0.007813 0.687500
vt 0.499998 0.332038
vt 0.578072 0.421886
vt 0.499998 0.421886
vt 0.603626 0.332025
vt 0.421925 0.421886
vt 0.586344 0.289061
vt 0.396371 0.332025
vt 0.499998 0.289064
vt 0.413653 0.289061
vt 0.499998 0.609375
vt 0.578178 0.609375
vt 0.667817 0.406043
vt 0.552519 0.097811
vt 0.447478 0.097811
vt 0.667817 0.677103
vt 0.711073 0.614747
vt 0.711073 0.399343
vt 0.421819 0.609375
vt 0.499998 0.097811
vt 0.499998 0.027591
vt 0.560711 0.027591
vt 0.798835 0.573878
vt 0.332180 0.406043
vt 0.332180 0.677103
vt 0.439286 0.027591
vt 0.772430 0.644709
vt 0.288924 0.614747
vt 0.288924 0.399343
vt 0.201162 0.573878
vt 0.227567 0.644709
vt 0.499998 0.722656
vt 0.541793 0.656250
vt 0.599183 0.722656
vt 0.499998 0.656250
vt 0.597980 0.789063
vt 0.458204 0.656250
vt 0.499998 0.789063
vt 0.400814 0.722656
vt 0.402017 0.789063
vt 0.584622 0.921875
vt 0.415375 0.921875
vt 0.499998 0.921875
vt 0.565559 0.984375
vt 0.499998 0.984375
vt 0.434438 0.984375
vt 0.842341 0.648438
vt 0.851548 0.648648
vt 0.859950 0.750000
vt 0.812500 0.750000
vt 0.812500 0.648438
vt 0.812500 0.640625
vt 0.847161 0.640625
vt 0.888790 0.745853
vt 0.935400 0.707767
vt 0.812500 0.542969
vt 0.878338 0.542969
vt 0.157655 0.648438
vt 0.140047 0.750000
vt 0.148449 0.648648
vt 0.187497 0.750000
vt 0.187497 0.648438
vt 0.187497 0.640625
vt 0.152836 0.640625
vt 0.111207 0.745853
vt 0.064597 0.707767
vt 0.187497 0.542969
vt 0.121659 0.542969
vt 0.867188 0.882812
vt 0.947533 0.765625
vt 0.971900 0.882813
vt 0.867188 0.765625
vt 0.930464 0.984375
vt 0.867188 0.984375
vt 0.991779 0.956193
vt 0.132809 0.882812
vt 0.028097 0.882813
vt 0.052464 0.765625
vt 0.069532 0.984375
vt 0.132809 0.765625
vt 0.132809 0.984375
vt 0.008218 0.956193
vt 0.718982 0.790513
vt 0.681032 0.800781
vt 0.702537 0.734375
vt 0.755174 0.710550
vt 0.796091 0.758738
vt 0.764460 0.821792
vt 0.673999 0.734375
vt 0.625000 0.800781
vt 0.668156 0.851563
vt 0.844443 0.880926
vt 0.625000 0.734375
vt 0.625000 0.851563
vt 0.625000 0.890625
vt 0.684147 0.890625
vt 0.752723 0.873816
vt 0.808726 0.931914
vt 0.669188 0.980469
vt 0.733762 0.967231
vt 0.625000 0.980469
vt 0.706264 0.886447
vt 0.281015 0.790513
vt 0.297460 0.734375
vt 0.318965 0.800781
vt 0.244823 0.710550
vt 0.203906 0.758738
vt 0.235537 0.821792
vt 0.325998 0.734375
vt 0.374997 0.800781
vt 0.331841 0.851563
vt 0.155554 0.880926
vt 0.247274 0.873816
vt 0.374997 0.734375
vt 0.374997 0.851563
vt 0.374997 0.890625
vt 0.315850 0.890625
vt 0.191271 0.931914
vt 0.266235 0.967231
vt 0.293733 0.886447
vt 0.330809 0.980469
vt 0.374997 0.980469
vt 0.992188 0.355504
vt 0.935687 0.355433
vt 0.864489 0.478142
vt 0.899098 0.378000
vt 0.962356 0.691305
vt 0.992188 0.710938
vt 0.984375 0.710938
vt 0.007813 0.355504
vt 0.064314 0.355433
vt 0.135511 0.478142
vt 0.100902 0.378000
vt 0.037644 0.691305
vt 0.015625 0.710938
vt 0.007813 0.710938
vt 0.933913 0.210945
vt 0.955294 0.128914
vt 0.613929 0.210937
vt 0.601469 0.128905
vt 0.066084 0.210945
vt 0.044703 0.128914
vt 0.386068 0.210937
vt 0.398528 0.128905
vt 0.777115 0.382720
vt 0.614519 0.318119
vt 0.823190 0.384104
vt 0.927774 0.331036
vt 0.222882 0.382720
vt 0.385478 0.318119
vt 0.176807 0.384104
vt 0.072223 0.331036
vt 0.436130 1.979210
vt 0.301550 1.799700
vt 0.491150 1.882920
vt 0.258160 1.874770
vt 0.340120 1.965440
vt 0.425850 1.779010
vt 0.198446 1.799700
vt 0.063866 1.979210
vt 0.008849 1.882920
vt 0.241836 1.874770
vt 0.074149 1.779010
vt 0.159873 1.965440
vn -1.0000 0.0000 -0.0000
vn 1.0000 0.0000 0.0000
vn 0.0000 0.8138 0.5811
vn 0.0000 -0.6285 -0.7778
vn 0.0000 -0.1714 -0.9852
vn 0.4852 -0.6972 -0.5277
vn 0.0000 -0.7693 -0.6389
vn 0.7667 -0.0509 -0.6399
vn -0.4852 -0.6972 -0.5277
vn 0.5043 0.4754 -0.7209
vn -0.7667 -0.0509 -0.6399
vn 0.0000 0.4682 -0.8836
vn -0.5043 0.4754 -0.7209
vn 0.0000 -0.9001 0.4357
vn 0.5082 -0.7925 0.3371
vn 0.4717 0.8809 -0.0378
vn -0.4717 0.8809 -0.0378
vn 0.6812 -0.0805 0.7277
vn 0.9308 0.3655 -0.0003
vn -0.5082 -0.7925 0.3371
vn 0.0000 0.9987 -0.0498
vn 0.0000 0.7031 0.7111
vn 0.4986 0.6691 0.5510
vn -0.6812 -0.0805 0.7277
vn -0.4986 0.6691 0.5510
vn -0.9308 0.3655 -0.0003
vn 0.0000 -0.0159 -0.9998
vn 0.3054 0.8273 -0.4715
vn 0.7492 0.2029 -0.6305
vn 0.0000 0.8445 -0.5356
vn 0.6553 -0.5275 -0.5406
vn -0.3054 0.8273 -0.4715
vn 0.0000 -0.6746 -0.7382
vn -0.7492 0.2029 -0.6305
vn -0.6553 -0.5275 -0.5406
vn 0.7211 -0.6928 0.0027
vn -0.7211 -0.6928 0.0027
vn 0.0000 -0.9827 -0.1854
vn 0.6800 -0.7142 0.1660
vn 0.0000 -0.9993 -0.0363
vn -0.6800 -0.7142 0.1660
vn 0.3453 -0.0810 0.9350
vn 0.6241 -0.6379 0.4512
vn 0.4823 0.6145 0.6242
vn 0.0000 0.7512 0.6600
vn 0.0000 -0.1179 0.9930
vn 0.0000 -0.9619 0.2733
vn 0.9321 0.1518 0.3287
vn -0.3453 -0.0810 0.9350
vn -0.4823 0.6145 0.6242
vn -0.6241 -0.6379 0.4512
vn -0.9321 0.1518 0.3287
vn 0.0000 -0.1710 0.9853
vn 0.9414 0.2344 0.2423
vn 0.5333 0.7004 0.4743
vn 0.9849 0.1034 0.1390
vn 0.0000 0.8249 0.5652
vn 0.2038 0.8946 0.3976
vn 0.0000 0.9176 0.3974
vn 0.0000 0.9740 0.2264
vn 0.5260 0.8251 0.2064
vn 0.9257 0.3523 0.1376
vn -0.9414 0.2344 0.2423
vn -0.5333 0.7004 0.4743
vn -0.9849 0.1034 0.1390
vn -0.2038 0.8946 0.3976
vn -0.9257 0.3523 0.1376
vn -0.5260 0.8251 0.2064
vn 0.0000 -0.6409 0.7676
vn 0.6970 -0.6270 -0.3478
vn 0.6285 -0.4745 0.6162
vn 0.0000 -0.9019 -0.4319
vn 0.5777 0.4996 0.6455
vn 0.0000 0.5363 0.8440
vn 0.5371 0.0951 -0.8381
vn 0.5505 0.8328 -0.0577
vn 0.0000 0.0890 -0.9960
vn 0.0000 0.9989 -0.0463
vn -0.6285 -0.4745 0.6162
vn -0.6970 -0.6270 -0.3478
vn -0.5777 0.4996 0.6455
vn -0.5371 0.0951 -0.8381
vn -0.5505 0.8328 -0.0577
vn -0.5773 -0.5773 -0.5773
vn 0.6540 0.3340 -0.6787
vn 0.5773 -0.5773 -0.5773
vn -0.5568 0.4562 -0.6942
vn 0.7071 -0.7071 0.0000
vn -0.7071 -0.7071 0.0000
vn 0.5774 -0.5775 0.5771
vn -0.5774 -0.5774 0.5772
vn 0.6352 0.3886 0.6674
vn -0.5726 0.4627 0.6768
vn -0.6540 0.3340 -0.6787
vn 0.5568 0.4562 -0.6942
vn -0.5774 -0.5775 0.5771
vn 0.5774 -0.5774 0.5772
vn -0.6352 0.3886 0.6674
vn 0.5726 0.4627 0.6767
vn -0.4878 0.8718 -0.0438
vn 0.7623 0.6461 -0.0382
vn 0.4878 0.8718 -0.0438
vn -0.7623 0.6461 -0.0382
usemtl Material__114
s off
f 80/1/1 81/2/1 82/3/1
f 80/1/1 83/4/1 81/2/1
f 80/1/1 82/3/1 84/5/1
f 80/1/1 84/5/1 85/6/1
f 86/7/2 87/8/2 88/9/2
f 86/7/2 88/9/2 89/10/2
f 86/7/2 89/10/2 90/11/2
f 86/7/2 90/11/2 91/12/2
f 92/13/2 93/14/2 94/15/2
f 92/13/2 95/16/2 93/14/2
f 92/13/2 94/15/2 96/17/2
f 92/13/2 97/18/2 95/16/2
f 98/19/1 99/20/1 100/21/1
f 98/19/1 101/22/1 99/20/1
f 98/19/1 100/21/1 102/23/1
f 98/19/1 103/24/1 101/22/1
f 70/25/3 72/26/3 74/27/3
f 70/25/3 69/28/3 72/26/3
f 68/29/4 71/30/4 66/31/4
f 68/29/4 73/32/4 71/30/4
f 70/33/3 79/34/3 77/35/3
f 70/33/3 74/36/3 79/34/3
f 78/37/4 68/38/4 76/39/4
f 78/37/4 73/40/4 68/38/4
s 1
f 1/41/5 2/42/6 3/43/7
f 1/41/5 4/44/8 2/42/6
f 1/41/5 3/43/7 5/45/9
f 1/41/5 6/46/10 4/44/8
f 1/41/5 5/45/9 7/47/11
f 1/41/5 8/48/12 6/46/10
f 1/41/5 7/47/11 9/49/13
f 1/41/5 9/49/13 8/48/12
f 2/42/6 10/50/14 3/43/7
f 2/42/6 11/51/15 10/50/14
f 2/42/6 4/52/8 11/51/15
f 3/43/7 10/50/14 5/45/9
f 6/46/10 8/48/12 12/53/16
f 9/49/13 13/54/17 8/48/12
f 4/52/8 14/55/18 11/51/15
f 4/52/8 15/56/19 14/55/18
f 4/52/8 6/57/10 15/56/19
f 10/50/14 16/58/20 5/45/9
f 12/53/16 8/48/12 17/59/21
f 12/53/16 17/59/21 18/60/22
f 12/53/16 18/60/22 19/61/23
f 17/59/21 13/54/17 18/60/22
f 17/59/21 8/48/12 13/54/17
f 6/57/10 12/62/16 15/56/19
f 16/58/20 7/63/11 5/45/9
f 16/58/20 20/64/24 7/63/11
f 18/60/22 13/54/17 21/65/25
f 12/62/16 19/66/23 15/56/19
f 20/64/24 22/67/26 7/63/11
f 22/67/26 9/68/13 7/63/11
f 22/67/26 13/69/17 9/68/13
f 22/67/26 21/70/25 13/69/17
f 23/71/27 24/72/28 25/73/29
f 23/71/27 26/74/30 24/72/28
f 23/71/27 25/73/29 27/75/31
f 23/71/27 28/76/32 26/74/30
f 23/71/27 27/75/31 29/77/33
f 23/71/27 30/78/34 28/76/32
f 23/71/27 29/77/33 31/79/35
f 23/71/27 31/79/35 30/78/34
f 27/75/31 32/80/36 29/77/33
f 31/79/35 29/77/33 33/81/37
f 32/80/36 34/82/38 29/77/33
f 32/80/36 35/83/39 34/82/38
f 29/77/33 34/82/38 33/81/37
f 35/83/39 36/84/40 34/82/38
f 33/81/37 34/82/38 37/85/41
f 37/85/41 34/82/38 36/84/40
f 38/86/42 39/87/43 40/88/44
f 38/86/42 40/88/44 41/89/45
f 38/86/42 41/89/45 42/90/46
f 38/86/42 42/90/46 43/91/47
f 38/86/42 43/91/47 39/92/43
f 39/87/43 44/93/48 40/88/44
f 39/87/43 35/94/39 44/93/48
f 43/91/47 36/95/40 39/92/43
f 36/95/40 35/96/39 39/92/43
f 45/97/49 46/98/50 47/99/51
f 45/97/49 41/100/45 46/98/50
f 45/97/49 42/101/46 41/100/45
f 45/97/49 43/102/47 42/101/46
f 45/97/49 47/103/51 43/102/47
f 47/99/51 46/98/50 48/104/52
f 47/99/51 48/104/52 37/105/41
f 47/103/51 36/106/40 43/102/47
f 47/103/51 37/107/41 36/106/40
f 49/108/53 11/109/15 14/110/18
f 49/108/53 10/111/14 11/109/15
f 49/108/53 14/110/18 19/112/23
f 49/108/53 19/112/23 18/113/22
f 14/110/18 15/114/19 19/112/23
f 49/115/53 20/116/24 16/117/20
f 49/115/53 21/118/25 20/116/24
f 49/115/53 16/117/20 10/119/14
f 49/115/53 18/120/22 21/118/25
f 20/116/24 21/118/25 22/121/26
f 50/122/54 51/123/55 44/124/48
f 50/122/54 44/124/48 35/125/39
f 50/122/54 35/125/39 32/126/36
f 50/122/54 32/126/36 52/127/56
f 51/123/55 40/128/44 44/124/48
f 51/123/55 53/129/57 40/128/44
f 51/123/55 54/130/58 53/129/57
f 32/126/36 27/131/31 52/127/56
f 40/128/44 53/129/57 41/132/45
f 54/130/58 55/133/59 53/129/57
f 54/130/58 56/134/60 55/133/59
f 54/130/58 57/135/61 56/134/60
f 27/131/31 58/136/62 52/127/56
f 27/131/31 25/137/29 58/136/62
f 57/135/61 24/138/28 56/134/60
f 25/137/29 24/139/28 58/136/62
f 24/138/28 26/140/30 56/134/60
f 24/139/28 57/141/61 58/136/62
f 59/142/63 48/143/52 60/144/64
f 59/142/63 37/145/41 48/143/52
f 59/142/63 33/146/37 37/145/41
f 59/142/63 61/147/65 33/146/37
f 60/144/64 48/143/52 46/148/50
f 60/144/64 46/148/50 53/149/57
f 60/144/64 53/149/57 62/150/66
f 61/147/65 31/151/35 33/146/37
f 61/147/65 63/152/67 31/151/35
f 46/148/50 41/153/45 53/149/57
f 62/150/66 53/149/57 55/154/59
f 62/150/66 55/154/59 56/155/60
f 62/150/66 56/155/60 64/156/68
f 63/152/67 30/157/34 31/151/35
f 63/152/67 28/158/32 30/157/34
f 63/152/67 64/159/68 28/158/32
f 56/155/60 28/160/32 64/156/68
f 56/155/60 26/161/30 28/160/32
f 65/162/69 66/31/70 67/163/71
f 65/162/69 68/29/72 66/31/70
f 65/162/69 67/163/71 69/28/73
f 65/162/69 69/28/73 70/25/74
f 66/31/70 71/30/75 69/164/73
f 66/31/70 69/164/73 67/165/71
f 71/30/75 72/166/76 69/164/73
f 71/30/75 73/32/77 74/167/78
f 71/30/75 74/167/78 72/168/76
f 65/169/69 75/170/79 76/39/80
f 65/169/69 77/35/81 75/170/79
f 65/169/69 76/39/80 68/38/72
f 65/169/69 70/33/74 77/35/81
f 76/39/80 77/171/81 78/37/82
f 76/39/80 75/172/79 77/171/81
f 78/37/82 77/171/81 79/173/83
f 78/37/82 79/174/83 74/175/78
f 78/37/82 74/175/78 73/40/77
f 85/6/84 88/176/85 87/8/86
f 85/6/84 84/177/87 88/176/85
f 85/6/84 87/8/86 86/7/88
f 85/6/84 86/7/88 80/1/89
f 86/7/88 91/12/90 80/1/89
f 91/12/90 83/4/91 80/1/89
f 91/12/90 90/178/92 83/4/91
f 90/178/92 81/179/93 83/4/91
f 97/18/86 102/23/84 100/180/94
f 97/18/86 98/19/89 102/23/84
f 97/18/86 100/180/94 95/181/95
f 97/18/86 92/13/88 98/19/89
f 92/13/88 103/24/96 98/19/89
f 92/13/88 96/17/97 103/24/96
f 96/17/97 101/182/98 103/24/96
f 96/17/97 94/183/99 101/182/98
f 82/184/100 81/185/93 90/11/92
f 82/184/100 90/11/92 89/10/101
f 89/10/101 88/9/85 82/186/100
f 88/9/85 84/187/87 82/186/100
f 93/188/102 101/22/98 94/189/99
f 93/188/102 99/20/103 101/22/98
f 99/20/103 93/190/102 100/21/94
f 93/190/102 95/191/95 100/21/94
usemtl Material__115
f 57/192/61 50/193/54 58/194/62
f 57/192/61 51/195/55 50/193/54
f 57/192/61 54/196/58 51/195/55
f 58/194/62 50/193/54 52/197/56
f 59/198/63 64/199/68 63/200/67
f 59/198/63 60/201/64 64/199/68
f 59/198/63 63/200/67 61/202/65
f 60/201/64 62/203/66 64/199/68
